<?xml version="1.0" standalone="no"?>
<!DOCTYPE svg PUBLIC "-//W3C//DTD SVG 20010904//EN"
 "http://www.w3.org/TR/2001/REC-SVG-20010904/DTD/svg10.dtd">
<svg version="1.0" xmlns="http://www.w3.org/2000/svg"
 width="603.000000pt" height="100.000000pt" viewBox="0 0 603.000000 100.000000"
 preserveAspectRatio="xMidYMid meet">

<g transform="translate(0.000000,100.000000) scale(0.100000,-0.100000)"
fill="white" stroke="none">
<path d="M75 804 c-30 -9 -55 -35 -55 -58 0 -24 63 -223 80 -255 24 -46 56
-56 202 -61 157 -6 175 -14 185 -88 8 -60 -6 -72 -84 -72 -80 0 -100 11 -109
55 l-6 35 -79 0 -79 0 0 -40 c0 -60 32 -116 83 -142 44 -24 62 -25 475 -20
l103 1 24 56 c14 31 38 92 53 136 l27 79 73 0 c62 0 72 -2 72 -17 0 -10 -18
-71 -39 -136 l-39 -117 85 0 84 0 29 63 c50 112 88 267 110 452 15 138 23 125
-78 125 l-88 0 -13 -107 c-7 -59 -15 -111 -17 -115 -3 -4 -38 -8 -78 -8 l-73
0 7 43 c5 23 11 77 15 120 l7 77 -90 0 -91 0 -5 -32 c-3 -18 -10 -76 -16 -128
-12 -101 -52 -279 -78 -344 l-16 -40 -18 83 c-33 157 -59 177 -237 189 -102 7
-125 12 -142 29 -21 21 -52 107 -42 117 10 10 88 7 121 -5 17 -6 38 -21 47
-35 14 -22 22 -24 95 -24 46 0 80 4 80 10 0 23 -35 97 -57 122 -14 14 -45 31
-71 38 -50 13 -323 23 -357 14z"/>
<path d="M3257 698 c-8 -158 -63 -411 -108 -500 l-19 -38 88 0 88 0 37 102
c50 138 76 257 87 391 15 175 24 157 -79 157 l-88 0 -6 -112z"/>
<path d="M3600 765 c0 -110 -66 -371 -134 -532 -14 -34 -26 -65 -26 -68 0 -11
169 -5 176 7 5 7 27 66 49 131 l41 118 55 -128 55 -128 67 -3 68 -3 28 63 c52
114 111 356 127 516 l7 73 -89 -3 -89 -3 -3 -55 c-4 -69 -42 -280 -51 -280 -3
0 -35 77 -70 170 l-65 170 -73 0 -73 0 0 -45z"/>
<path d="M1410 780 c-11 -11 -20 -24 -20 -28 0 -5 -7 -59 -15 -120 -17 -131
-35 -205 -75 -320 -34 -95 -36 -114 -14 -137 14 -14 44 -16 234 -13 l217 3 35
27 c27 21 41 43 57 90 36 109 71 280 78 379 9 144 19 139 -257 139 -207 0
-221 -1 -240 -20z m317 -177 c-8 -96 -51 -270 -73 -294 -23 -25 -161 -28 -171
-4 -3 9 6 57 20 108 14 51 31 126 38 167 7 41 17 81 22 88 6 8 37 12 90 12
l80 0 -6 -77z"/>
<path d="M2046 667 c-19 -148 -58 -311 -104 -429 l-30 -78 88 0 88 0 38 105
38 105 106 0 c173 0 204 18 244 136 30 88 39 187 23 234 -18 52 -49 59 -278
59 l-195 1 -18 -133z m319 -1 c15 -11 17 -21 11 -72 -8 -79 -27 -94 -113 -94
l-66 0 7 38 c4 20 9 61 13 90 l6 52 61 0 c36 0 70 -6 81 -14z"/>
<path d="M2656 667 c-19 -148 -58 -311 -104 -429 l-30 -78 88 0 88 0 38 105
38 105 106 0 c173 0 204 18 244 136 30 88 39 187 23 234 -18 52 -49 59 -278
59 l-195 1 -18 -133z m319 -1 c15 -11 17 -21 11 -72 -8 -79 -27 -94 -113 -94
l-66 0 7 38 c4 20 9 61 13 90 l6 52 61 0 c36 0 70 -6 81 -14z"/>
<path d="M4285 784 c-50 -26 -57 -39 -72 -141 -8 -54 -32 -167 -54 -252 -21
-85 -39 -164 -39 -177 0 -46 31 -54 205 -54 183 1 242 9 266 38 24 30 89 255
89 309 0 2 -51 3 -114 3 l-113 0 -7 -37 c-3 -21 -9 -48 -12 -60 -5 -20 -2 -23
20 -23 20 0 26 -5 26 -21 0 -45 -17 -59 -76 -59 -46 0 -56 3 -62 21 -7 18 31
241 53 308 8 25 45 31 186 31 133 0 122 -8 132 88 l5 42 -201 0 c-163 0 -208
-3 -232 -16z"/>
<path d="M4940 597 c0 -2 11 -36 24 -75 l25 -72 -95 0 -94 0 5 -25 c3 -14 7
-36 10 -50 5 -25 7 -25 100 -25 107 0 97 10 116 -112 l12 -78 53 0 c62 0 60
-5 40 108 l-13 72 94 0 c85 0 94 2 90 18 -3 9 -8 34 -12 54 l-6 37 -96 3 -96
3 -25 73 -24 72 -54 0 c-30 0 -54 -1 -54 -3z"/>
<path d="M5530 597 c0 -2 11 -36 24 -75 l25 -72 -95 0 -94 0 5 -25 c3 -14 7
-36 10 -50 5 -25 7 -25 100 -25 107 0 97 10 116 -112 l12 -78 53 0 c62 0 60
-5 40 108 l-13 72 94 0 c85 0 94 2 90 18 -3 9 -8 34 -12 54 l-6 37 -96 3 -96
3 -25 73 -24 72 -54 0 c-30 0 -54 -1 -54 -3z"/>
</g>
</svg>
